<?xml version="1.0" encoding="utf-8"?>
<!-- Generator: Adobe Illustrator 23.0.0, SVG Export Plug-In . SVG Version: 6.00 Build 0)  -->
<svg version="1.1" id="Layer_1"
    xmlns="http://www.w3.org/2000/svg"
    xmlns:xlink="http://www.w3.org/1999/xlink" x="0px" y="0px" viewBox="0 0 1700 332" style="enable-background:new 0 0 1700 332;" xml:space="preserve">
    <style type="text/css">
	.st0{fill:#51BE9B;}
	.st1{fill:#FFFFFF;}
	.st2{fill:url(#SVGID_1_);}
	.st3{fill:url(#SVGID_2_);}
	.st4{fill:url(#SVGID_3_);}
	.st5{fill:#7A60A6;}
	.st6{fill:url(#SVGID_4_);}
	.st7{fill:url(#SVGID_5_);}
	.st8{fill:url(#SVGID_6_);}
	.st9{fill:url(#SVGID_7_);}
	.st10{fill:url(#SVGID_8_);}
    </style>
    <g>
        <g>
            <g>
                <path class="st0" d="M522,271.7c1.3,0,2.6,0.2,3.8,0.7c1.2,0.5,2.2,1.1,3.1,1.9c0.9,0.8,1.6,1.7,2.1,2.8c0.5,1.1,0.7,2.2,0.7,3.4
				v6.6h-10.7v-5.9H510V322h10.8v-7.4h10.8v8.2c0,1.2-0.3,2.4-0.8,3.4c-0.5,1-1.2,2-2.1,2.8c-0.9,0.8-1.9,1.4-3.1,1.9
				c-1.2,0.5-2.4,0.7-3.7,0.7h-13c-1.3,0-2.6-0.2-3.8-0.7c-1.2-0.5-2.2-1.1-3.1-1.9c-0.9-0.8-1.6-1.7-2.1-2.8
				c-0.5-1-0.7-2.2-0.7-3.4v-42.3c0-1.2,0.2-2.3,0.7-3.4c0.5-1.1,1.2-2,2.1-2.8s1.9-1.5,3.1-1.9c1.2-0.5,2.4-0.7,3.8-0.7H522z"/>
                <path class="st0" d="M599.7,271.7h10.7V322h12.2v9.6h-22.9V271.7z"/>
                <path class="st0" d="M712,271.7c1.3,0,2.5,0.2,3.7,0.7c1.2,0.5,2.2,1.1,3.1,1.9c0.9,0.8,1.6,1.7,2.1,2.8c0.5,1.1,0.8,2.2,0.8,3.4
				v42.2c0,1.2-0.3,2.4-0.8,3.5c-0.5,1.1-1.2,2-2.1,2.8c-0.9,0.8-1.9,1.4-3.1,1.9c-1.2,0.5-2.4,0.7-3.7,0.7h-13.1
				c-1.3,0-2.6-0.2-3.8-0.7c-1.2-0.5-2.2-1.1-3.1-1.9c-0.9-0.8-1.6-1.7-2.1-2.8c-0.5-1.1-0.7-2.2-0.7-3.5v-42.2
				c0-1.2,0.2-2.3,0.7-3.4c0.5-1.1,1.2-2,2.1-2.8s1.9-1.5,3.1-1.9c1.2-0.5,2.4-0.7,3.8-0.7H712z M700.1,281.2V322h10.7v-40.8H700.1z
				"/>
                <path class="st0" d="M813.2,331.6v-2.4c-2.2,1.5-5.2,2.3-9.1,2.3c-3.8,0-6.9-0.8-9.3-2.5c-2.4-1.6-3.5-3.8-3.5-6.6v-50.7h10.8v50
				h10.8v-50h10.8v59.9H813.2z"/>
                <path class="st0" d="M893.4,271.7H916c1.3,0,2.5,0.2,3.7,0.7c1.2,0.5,2.2,1.1,3.1,1.9c0.9,0.8,1.6,1.7,2.1,2.8
				c0.5,1.1,0.8,2.2,0.8,3.4v42.3c0,1.2-0.3,2.4-0.8,3.4c-0.5,1-1.2,2-2.1,2.8c-0.9,0.8-1.9,1.4-3.1,1.9c-1.2,0.5-2.4,0.7-3.7,0.7
				h-22.6V271.7z M904,281.2V322h10.7v-40.8H904z"/>
                <path class="st0" d="M1101.1,271.7c1.3,0,2.5,0.2,3.7,0.7c1.2,0.5,2.2,1.1,3.1,1.9s1.6,1.7,2.1,2.8c0.5,1.1,0.7,2.2,0.7,3.4v6.6
				h-10.7v-5.9h-10.7V292l21.6,14.5v16.4c0,1.2-0.3,2.4-0.8,3.4c-0.5,1-1.2,2-2.1,2.8c-0.9,0.8-1.9,1.4-3.1,1.9
				c-1.2,0.5-2.4,0.7-3.7,0.7H1088c-1.3,0-2.6-0.2-3.8-0.7c-1.2-0.5-2.2-1.1-3.1-1.9c-0.9-0.8-1.6-1.7-2.1-2.8
				c-0.5-1.1-0.8-2.2-0.8-3.5V316h10.8v6h10.7v-11.1l-21.6-14.7v-15.6c0-1.2,0.3-2.3,0.8-3.4c0.5-1.1,1.2-2,2.1-2.8
				c0.9-0.8,1.9-1.5,3.1-1.9c1.2-0.5,2.4-0.7,3.8-0.7H1101.1z"/>
                <path class="st0" d="M1175.8,281.6v-10h29.5v10h-9.3v49.9h-10.8v-49.9H1175.8z"/>
                <path class="st0" d="M1293.9,271.7c1.3,0,2.5,0.2,3.7,0.7c1.2,0.5,2.2,1.1,3.1,1.9c0.9,0.8,1.6,1.7,2.1,2.8
				c0.5,1.1,0.8,2.2,0.8,3.4v42.2c0,1.2-0.3,2.4-0.8,3.5c-0.5,1.1-1.2,2-2.1,2.8c-0.9,0.8-1.9,1.4-3.1,1.9c-1.2,0.5-2.4,0.7-3.7,0.7
				h-13.1c-1.3,0-2.6-0.2-3.8-0.7c-1.2-0.5-2.2-1.1-3.1-1.9c-0.9-0.8-1.6-1.7-2.1-2.8c-0.5-1.1-0.7-2.2-0.7-3.5v-42.2
				c0-1.2,0.2-2.3,0.7-3.4c0.5-1.1,1.2-2,2.1-2.8s1.9-1.5,3.1-1.9c1.2-0.5,2.4-0.7,3.8-0.7H1293.9z M1282,281.2V322h10.7v-40.8H1282
				z"/>
                <path class="st0" d="M1373.2,271.7h22.3c1.3,0,2.5,0.2,3.7,0.7c1.2,0.5,2.2,1.1,3.1,1.9c0.9,0.8,1.6,1.7,2.1,2.8
				c0.5,1.1,0.8,2.2,0.8,3.4v11.8c0,3.9-1.8,7.3-5.5,10.2c2.9,2.2,4.4,4.5,4.4,6.8v22.2h-10.8v-21.3c-0.3-2.6-1.6-3.9-3.8-3.9h-5.2
				v25.1h-10.8V271.7z M1384,281.2v16.5h10.2v-16.5H1384z"/>
                <path class="st0" d="M1495.2,305.8h-10.8v25.8h-10.8v-51c0-1.2,0.2-2.3,0.7-3.4c0.5-1.1,1.2-2,2.1-2.8c0.9-0.8,1.9-1.4,3.1-1.9
				c1.2-0.5,2.4-0.7,3.8-0.7h13.2c1.3,0,2.5,0.2,3.7,0.7c1.2,0.5,2.2,1.1,3.1,1.9c0.9,0.8,1.6,1.7,2.1,2.8c0.5,1.1,0.8,2.2,0.8,3.4
				v51h-10.8V305.8z M1484.3,297h10.8v-15.6h-10.8V297z"/>
                <path class="st0" d="M1598.2,271.7c1.3,0,2.6,0.2,3.8,0.7c1.2,0.5,2.2,1.1,3.1,1.9c0.9,0.8,1.6,1.7,2.1,2.8
				c0.5,1.1,0.7,2.2,0.7,3.4v6.6H1597v-5.9h-10.7V322h10.7v-16.5h-4v-9.2h14.8v26.5c0,1.2-0.2,2.4-0.7,3.4c-0.5,1-1.2,2-2.1,2.8
				c-0.9,0.8-1.9,1.4-3.1,1.9c-1.2,0.5-2.4,0.7-3.8,0.7h-13c-1.3,0-2.6-0.2-3.8-0.7c-1.2-0.5-2.2-1.1-3.1-1.9
				c-0.9-0.8-1.6-1.7-2.1-2.8c-0.5-1-0.7-2.2-0.7-3.4v-42.3c0-1.2,0.2-2.3,0.7-3.4c0.5-1.1,1.2-2,2.1-2.8s1.9-1.5,3.1-1.9
				c1.2-0.5,2.4-0.7,3.8-0.7H1598.2z"/>
                <path class="st0" d="M1700,271.6v9.6h-12.1v15.7h12.1v9.6h-12.1V322h12.1v9.6h-13.3c-1.3,0-2.6-0.2-3.7-0.7
				c-1.1-0.5-2.1-1.1-3-1.9c-0.9-0.8-1.6-1.7-2.1-2.8c-0.5-1-0.7-2.2-0.7-3.4v-42.3c0-1.2,0.2-2.3,0.7-3.4c0.5-1.1,1.2-2,2.1-2.8
				c0.9-0.8,1.9-1.5,3-1.9c1.1-0.5,2.4-0.7,3.7-0.7H1700z"/>
            </g>
            <g>
                <polygon class="st1" points="547.2,0.4 499.4,0.4 403.3,0.4 403.3,39.4 499.4,39.4 499.4,208.5 547.2,208.5 547.2,39.4 
				643.3,39.4 643.3,0.4 			"/>
                <polygon class="st1" points="984.1,0.4 936.2,0.4 840.2,0.4 840.2,39.4 936.2,39.4 936.2,208.5 984.1,208.5 984.1,39.4 
				1080.1,39.4 1080.1,0.4 			"/>

                <rect x="637.2" y="80.5" transform="matrix(-1.836970e-16 1 -1 -1.836970e-16 845.7257 -636.7993)" class="st1" width="208.1" height="47.9"/>
                <g>
                    <path class="st1" d="M1280.1,0.4h-47.7l-117.3,208.1h48.3l25-46.1h131l24.7,46.1h54.5L1280.1,0.4z M1209.1,124.4l45.3-83.5
					l44.8,83.5H1209.1z"/>
                </g>
                <polygon class="st1" points="1456.3,208.5 1456.3,0.4 1489.4,0.4 1657,142.6 1657,0.4 1700,0.4 1700,208.5 1665.4,208.5 
				1497.7,65.5 1497.7,208.5 			"/>
            </g>
        </g>
        <g>
            <polygon class="st1" points="138.5,33.1 138.5,33.1 138.5,33.1 		"/>
            <linearGradient id="SVGID_1_" gradientUnits="userSpaceOnUse" x1="5.726325e-05" y1="16.7326" x2="277.0573" y2="16.7326">
                <stop offset="0.1648" style="stop-color:#6D54A0"/>
                <stop offset="0.986" style="stop-color:#5B6CB0"/>
            </linearGradient>
            <polygon class="st2" points="277.1,0.4 138.5,0.4 0,0.4 26.5,33.1 138.5,33.1 138.5,33.1 250.6,33.1 250.6,33 		"/>
            <linearGradient id="SVGID_2_" gradientUnits="userSpaceOnUse" x1="81.2293" y1="66.1462" x2="210.043" y2="289.2579">
                <stop offset="0.2598" style="stop-color:#5F6BAF"/>
                <stop offset="0.9302" style="stop-color:#18B6A4"/>
            </linearGradient>
            <path class="st3" d="M138.5,330c0.7,0,1.4-0.2,2-0.7l35.4-25.8V65.8l-37.5-32.7V330z"/>
            <linearGradient id="SVGID_3_" gradientUnits="userSpaceOnUse" x1="183.4309" y1="7.1399" x2="232.1969" y2="91.605">
                <stop offset="0.1648" style="stop-color:#777BB8"/>
                <stop offset="0.8687" style="stop-color:#5E9CC9"/>
            </linearGradient>
            <polygon class="st4" points="138.5,33.1 138.5,33.1 176,65.8 176,65.7 277.1,65.7 250.6,33.1 		"/>
            <polygon class="st5" points="0,0.4 0,33.1 0,65.7 26.5,33.1 		"/>
            <linearGradient id="SVGID_4_" gradientUnits="userSpaceOnUse" x1="260.7529" y1="16.717" x2="293.413" y2="49.3772">
                <stop offset="0" style="stop-color:#6159A3"/>
                <stop offset="0.8966" style="stop-color:#5477B7"/>
            </linearGradient>
            <polygon class="st6" points="277.1,0.4 250.6,33 250.6,33.1 277.1,65.7 277.1,65.7 277.1,33.1 277.1,0.4 		"/>
            <linearGradient id="SVGID_5_" gradientUnits="userSpaceOnUse" x1="65.93" y1="74.979" x2="194.5108" y2="297.6876">
                <stop offset="5.027933e-02" style="stop-color:#5A70AF"/>
                <stop offset="0.7235" style="stop-color:#3DBCA4"/>
            </linearGradient>
            <path class="st7" d="M138.5,33.1l-37.5,32.7v237.8l35.4,25.8c0.6,0.4,1.3,0.7,2,0.7L138.5,33.1L138.5,33.1z"/>
            <linearGradient id="SVGID_6_" gradientUnits="userSpaceOnUse" x1="0" y1="49.4085" x2="138.5488" y2="49.4085">
                <stop offset="8.659218e-02" style="stop-color:#67519F"/>
                <stop offset="0.7793" style="stop-color:#6059A3"/>
            </linearGradient>
            <polygon class="st8" points="26.5,33.1 0,65.7 101.1,65.7 101.1,65.8 138.5,33.1 		"/>
            <linearGradient id="SVGID_7_" gradientUnits="userSpaceOnUse" x1="195.3325" y1="104.6381" x2="274.4579" y2="241.6873">
                <stop offset="8.659218e-02" style="stop-color:#2E9CBC"/>
                <stop offset="0.8799" style="stop-color:#51BE9B"/>
            </linearGradient>
            <polygon class="st9" points="209.6,279.1 277.1,230 277.1,96.4 209.6,96.4 		"/>
            <linearGradient id="SVGID_8_" gradientUnits="userSpaceOnUse" x1="-3.6054" y1="98.4975" x2="92.4009" y2="264.7854">
                <stop offset="0.1313" style="stop-color:#5B6CB0"/>
                <stop offset="0.9134" style="stop-color:#3DBCA4"/>
            </linearGradient>
            <polygon class="st10" points="0,230 67.5,279.1 67.5,96.4 0,96.4 		"/>
        </g>
    </g>
</svg>
